<svg xmlns="http://www.w3.org/2000/svg" width="500" height="500" viewBox="0 0 500 500" version="1.1"><path d="M 207.748 177.427 C 202.512 179.295, 198.414 182.604, 183.500 197.003 C 151.490 227.908, 146.398 232, 139.952 232 C 135.252 232, 129.895 228.404, 128.781 224.500 C 128.310 222.850, 127.275 212.725, 126.481 202 C 125.687 191.275, 124.800 181.507, 124.510 180.294 C 124.138 178.733, 122.973 177.898, 120.531 177.440 C 116.569 176.697, 92.449 177.216, 91.604 178.062 C 88.046 181.624, 88.046 334.376, 91.604 337.938 C 92.439 338.774, 116.545 339.308, 120.443 338.577 C 122.293 338.230, 124.049 337.316, 124.344 336.546 C 124.639 335.776, 125.377 327.576, 125.983 318.323 C 127.295 298.292, 128.561 290.369, 130.824 288.014 C 135.487 283.165, 141.624 282.740, 148.054 286.822 C 152.685 289.762, 160.729 297.075, 184.782 320.214 C 192.637 327.770, 201.187 335.201, 203.782 336.726 C 208.381 339.430, 208.944 339.508, 226.100 339.829 C 245.914 340.199, 251.055 339.370, 252.807 335.523 C 254.455 331.907, 255.364 321.067, 254.559 314.627 C 253.408 305.414, 252.534 304.869, 236.412 303.297 C 219.758 301.673, 220.190 301.912, 203.490 285.074 C 188.133 269.589, 184.815 264.818, 184.736 258.107 C 184.685 253.778, 185.251 252.152, 188.406 247.572 C 193.378 240.353, 217.179 217.241, 221.501 215.435 C 223.386 214.647, 230.682 213.517, 237.714 212.923 C 252.598 211.667, 254.111 210.739, 255.898 201.785 C 256.793 197.300, 256.616 195.137, 254.726 187.500 C 252.577 178.812, 252.379 178.459, 249 177.306 C 243.968 175.590, 212.637 175.682, 207.748 177.427 M 271.699 176.898 C 269.609 177.340, 267.513 178.106, 267.042 178.601 C 266.572 179.095, 265.192 183.224, 263.977 187.775 C 262.630 192.821, 261.037 196.561, 259.895 197.361 C 258.071 198.639, 258.075 198.779, 260.042 202.852 C 262.041 206.989, 262.790 212.586, 264.878 239 C 265.972 252.837, 267.923 257.924, 275.010 265.417 C 280.914 271.659, 288.495 275.433, 298 276.861 C 301.575 277.397, 320.250 278.143, 339.500 278.517 C 375.887 279.224, 378.566 279.552, 382.308 283.755 C 387.100 289.138, 385.736 295.564, 379.080 298.959 C 375.475 300.798, 371.849 301.014, 327.850 302.010 C 279.069 303.115, 268.360 303.843, 266.866 306.157 C 263.811 310.891, 262.948 322.102, 264.927 331.338 C 266.931 340.690, 264.077 340.260, 327.500 340.758 C 385.386 341.212, 400.743 340.534, 408.297 337.193 C 417.880 332.954, 426.134 322.791, 428.640 312.147 C 431.223 301.172, 430.123 180.793, 427.414 178.080 C 426.554 177.218, 396.293 177.377, 395.421 178.247 C 394.689 178.978, 393.950 186.982, 392.149 213.672 C 391.091 229.353, 389.497 232.951, 382.090 236.377 C 377.734 238.392, 375.971 238.500, 347.500 238.500 C 315.203 238.500, 312.410 238.137, 307.590 233.318 C 303.926 229.654, 303.254 226.055, 302.021 203.500 C 300.713 179.575, 300.499 178.342, 297.529 177.597 C 293.408 176.562, 275.571 176.080, 271.699 176.898" stroke="none" fill="#a333e7" fill-rule="evenodd"/><path d="M 0 250.002 L 0 500.004 250.250 499.752 L 500.500 499.500 500.752 249.750 L 501.004 0 250.502 0 L 0 0 0 250.002 M 0.492 250.500 C 0.492 388, 0.608 444.101, 0.750 375.170 C 0.892 306.238, 0.892 193.738, 0.750 125.170 C 0.608 56.601, 0.492 113, 0.492 250.500 M 207.748 177.427 C 202.512 179.295, 198.414 182.604, 183.500 197.003 C 151.490 227.908, 146.398 232, 139.952 232 C 135.252 232, 129.895 228.404, 128.781 224.500 C 128.310 222.850, 127.275 212.725, 126.481 202 C 125.687 191.275, 124.800 181.507, 124.510 180.294 C 124.138 178.733, 122.973 177.898, 120.531 177.440 C 116.569 176.697, 92.449 177.216, 91.604 178.062 C 88.046 181.624, 88.046 334.376, 91.604 337.938 C 92.439 338.774, 116.545 339.308, 120.443 338.577 C 122.293 338.230, 124.049 337.316, 124.344 336.546 C 124.639 335.776, 125.377 327.576, 125.983 318.323 C 127.295 298.292, 128.561 290.369, 130.824 288.014 C 135.487 283.165, 141.624 282.740, 148.054 286.822 C 152.685 289.762, 160.729 297.075, 184.782 320.214 C 192.637 327.770, 201.187 335.201, 203.782 336.726 C 208.381 339.430, 208.944 339.508, 226.100 339.829 C 245.914 340.199, 251.055 339.370, 252.807 335.523 C 254.455 331.907, 255.364 321.067, 254.559 314.627 C 253.408 305.414, 252.534 304.869, 236.412 303.297 C 219.758 301.673, 220.190 301.912, 203.490 285.074 C 188.133 269.589, 184.815 264.818, 184.736 258.107 C 184.685 253.778, 185.251 252.152, 188.406 247.572 C 193.378 240.353, 217.179 217.241, 221.501 215.435 C 223.386 214.647, 230.682 213.517, 237.714 212.923 C 252.598 211.667, 254.111 210.739, 255.898 201.785 C 256.793 197.300, 256.616 195.137, 254.726 187.500 C 252.577 178.812, 252.379 178.459, 249 177.306 C 243.968 175.590, 212.637 175.682, 207.748 177.427 M 271.699 176.898 C 269.609 177.340, 267.513 178.106, 267.042 178.601 C 266.572 179.095, 265.192 183.224, 263.977 187.775 C 262.630 192.821, 261.037 196.561, 259.895 197.361 C 258.071 198.639, 258.075 198.779, 260.042 202.852 C 262.041 206.989, 262.790 212.586, 264.878 239 C 265.972 252.837, 267.923 257.924, 275.010 265.417 C 280.914 271.659, 288.495 275.433, 298 276.861 C 301.575 277.397, 320.250 278.143, 339.500 278.517 C 375.887 279.224, 378.566 279.552, 382.308 283.755 C 387.100 289.138, 385.736 295.564, 379.080 298.959 C 375.475 300.798, 371.849 301.014, 327.850 302.010 C 279.069 303.115, 268.360 303.843, 266.866 306.157 C 263.811 310.891, 262.948 322.102, 264.927 331.338 C 266.931 340.690, 264.077 340.260, 327.500 340.758 C 385.386 341.212, 400.743 340.534, 408.297 337.193 C 417.880 332.954, 426.134 322.791, 428.640 312.147 C 431.223 301.172, 430.123 180.793, 427.414 178.080 C 426.554 177.218, 396.293 177.377, 395.421 178.247 C 394.689 178.978, 393.950 186.982, 392.149 213.672 C 391.091 229.353, 389.497 232.951, 382.090 236.377 C 377.734 238.392, 375.971 238.500, 347.500 238.500 C 315.203 238.500, 312.410 238.137, 307.590 233.318 C 303.926 229.654, 303.254 226.055, 302.021 203.500 C 300.713 179.575, 300.499 178.342, 297.529 177.597 C 293.408 176.562, 275.571 176.080, 271.699 176.898" stroke="none" fill="#0b050f" fill-rule="evenodd"/></svg>